<svg width="20" height="19" viewBox="0 0 20 19" fill="none" xmlns="http://www.w3.org/2000/svg">
<path d="M14.0546 4.83496H15.8078L13.2088 0.375921C12.9994 0.0145989 12.5354 -0.108579 12.1741 0.104929C11.8127 0.314332 11.6896 0.778302 11.9031 1.13962L14.0546 4.83496Z" fill="black"/>
<path d="M8.10511 1.13963C8.31452 0.778309 8.19544 0.314338 7.83412 0.104936C7.4728 -0.104467 7.00883 0.0146051 6.79943 0.375927L4.20038 4.83908H5.95361L8.10511 1.13963Z" fill="black"/>
<path d="M18.7107 6.20227H1.28516C0.574831 6.20227 0 6.7771 0 7.48743V8.91219C0 9.62251 0.574831 10.1973 1.28516 10.1973H1.68754L2.92753 16.9188C3.08356 17.7112 3.8062 18.3394 4.55759 18.3394H5.0503H8.28577C8.61425 18.3394 9.04126 18.3394 9.47649 18.3394H9.87066H10.2648C10.7001 18.3394 11.1271 18.3394 11.4556 18.3394H14.691H15.1837C15.9351 18.3394 16.6578 17.7112 16.8138 16.9188L18.062 10.1932H18.7148C19.4252 10.1932 20 9.61841 20 8.90808V7.48332C19.9959 6.7771 19.4211 6.20227 18.7107 6.20227ZM7.09505 12.9196V15.8184C7.09505 16.2331 6.75837 16.5451 6.3683 16.5451C5.9536 16.5451 5.64155 16.2084 5.64155 15.8184V14.603V11.7535C5.64155 11.3388 5.97824 11.0267 6.3683 11.0267C6.783 11.0267 7.09505 11.3634 7.09505 11.7535V12.9196ZM9.42722 12.9196V15.8184C9.42722 16.2331 9.09054 16.5451 8.70047 16.5451C8.28577 16.5451 7.97372 16.2084 7.97372 15.8184V14.603V11.7535C7.97372 11.3388 8.31041 11.0267 8.70047 11.0267C9.09054 11.0267 9.42722 11.3634 9.42722 11.7535V12.9196ZM11.7717 14.603V15.8184C11.7717 16.2084 11.4597 16.5451 11.045 16.5451C10.6549 16.5451 10.3182 16.2331 10.3182 15.8184V12.9196V11.7535C10.3182 11.3634 10.6549 11.0267 11.045 11.0267C11.435 11.0267 11.7717 11.3388 11.7717 11.7535V14.603ZM14.1039 14.603V15.8184C14.1039 16.2084 13.7918 16.5451 13.3771 16.5451C12.9871 16.5451 12.6504 16.2331 12.6504 15.8184V12.9196V11.7535C12.6504 11.3634 12.9624 11.0267 13.3771 11.0267C13.7672 11.0267 14.1039 11.3388 14.1039 11.7535V14.603Z" fill="black"/>
</svg>
