<svg width="20" height="17" viewBox="0 0 20 17" fill="none" xmlns="http://www.w3.org/2000/svg">
<path d="M1.00003 5.84418L1.00003 5.84402C1.00467 4.77701 1.45186 3.54076 2.2653 2.57755C3.0669 1.62837 4.17243 1 5.48855 1C6.0615 1 6.78065 1.18713 7.51447 1.51042C8.24037 1.83023 8.90127 2.24826 9.3492 2.63112L9.99918 3.18669L10.649 2.63087C11.0963 2.24823 11.757 1.83026 12.4831 1.51044C13.217 1.18714 13.9363 1 14.5093 1C15.8255 1 16.9313 1.6284 17.7334 2.57771C18.5472 3.54095 18.9948 4.77718 19 5.84418C19.004 6.72901 18.5374 7.79413 17.6481 8.97371C16.7752 10.1314 15.5874 11.2782 14.3647 12.3044C13.1473 13.3263 11.9247 14.2045 11.0037 14.8285C10.6006 15.1017 10.257 15.325 9.99903 15.4891C9.74112 15.325 9.39757 15.1016 8.9946 14.8285C8.07385 14.2044 6.85144 13.3261 5.63431 12.3041C4.41193 11.2778 3.22434 10.131 2.35166 8.97334C1.46246 7.79378 0.996033 6.72878 1.00003 5.84418Z" stroke="#FE4A5B" stroke-width="2"/>
</svg>
