<svg width="20" height="20" viewBox="0 0 20 20" fill="none" xmlns="http://www.w3.org/2000/svg">
<path d="M13.7762 6.84147H15.6445C16.0536 6.84147 16.3883 6.50657 16.3883 6.09721V4.31615C16.3883 3.90658 16.0536 3.5719 15.6445 3.5719H13.7762C13.3668 3.5719 13.0321 3.90658 13.0321 4.31615V6.09721C13.0321 6.50657 13.3668 6.84147 13.7762 6.84147Z" fill="black"/>
<path d="M10.0158 13.1804C11.8491 13.1804 13.3353 11.7404 13.3353 9.96405C13.3353 8.18769 11.8491 6.74767 10.0158 6.74767C8.18241 6.74767 6.69618 8.18769 6.69618 9.96405C6.69618 11.7404 8.18241 13.1804 10.0158 13.1804Z" fill="black"/>
<path d="M18.9362 0H1.06383C0.476383 0 0 0.476383 0 1.06383V18.9362C0 19.5236 0.476383 20 1.06383 20H18.9362C19.5238 20 20 19.5236 20 18.9362V1.06383C20 0.476383 19.5238 0 18.9362 0ZM18.2645 16.143C18.2645 17.4006 17.3098 18.2645 16.143 18.2645H3.85702C2.69021 18.2645 1.73553 17.4006 1.73553 16.143V3.85702C1.73553 2.59936 2.69 1.73553 3.85702 1.73553H16.143C17.3096 1.73553 18.2645 2.59936 18.2645 3.85702V16.143Z" fill="black"/>
<path d="M15.1534 10.1438C15.1534 12.8932 12.853 15.1217 10.016 15.1217C7.17851 15.1217 4.8783 12.893 4.8783 10.1438C4.8783 9.65106 4.95276 9.1751 5.09042 8.72552H3.57213V15.7074C3.57213 16.0687 3.86808 16.3645 4.22936 16.3645H15.7398C16.1008 16.3645 16.3968 16.0687 16.3968 15.7074V8.72552H14.9419C15.0789 9.1751 15.1534 9.65084 15.1534 10.1438Z" fill="black"/>
</svg>
