<svg width="65" height="50" viewBox="0 0 65 50" fill="none" xmlns="http://www.w3.org/2000/svg">
<path d="M8.91129 1.06839C3.87903 1.06839 0 4.31839 0 9.97968V26.1248C0.419355 28.1168 2.51613 29.5845 4.82258 29.5845C7.44355 29.5845 9.33065 27.6974 9.33065 25.391V17.2136H16.4597V25.2861C16.4597 29.7942 10.6935 32.1007 6.5 32.1007C4.08871 32.1007 1.78226 31.3668 0.104839 30.1087V47.9313H11.4274C15.4113 47.9313 20.0242 44.1571 20.0242 39.3345V1.06839H8.91129Z" fill="#1174CE"/>
<path d="M0 9.97968V26.1248C0.419355 28.1168 2.51613 29.5845 4.82258 29.5845C7.44355 29.5845 9.33065 27.6974 9.33065 25.391V17.2136H16.4597V25.2861C16.4597 29.7942 10.6935 32.1007 6.5 32.1007C4.08871 32.1007 1.78226 31.3668 0.104839 30.1087V47.9313H11.4274C15.4113 47.9313 20.0242 44.1571 20.0242 39.3345V1.06839" fill="#0F549D"/>
<path d="M16.3548 17.2138V25.2864C16.3548 29.7944 10.5887 32.1009 6.39516 32.1009C3.98387 32.1009 1.67742 31.367 0 30.1089V47.9315H11.3226C15.3065 47.9315 19.9194 44.1573 19.9194 39.3347" fill="#02375E"/>
<path d="M48.5403 29.3751H53.4678C54.7258 29.3751 55.8791 28.2219 55.8791 26.9638C55.8791 25.7057 54.7258 24.5525 53.4678 24.5525H48.5403V29.3751Z" fill="#146643"/>
<path d="M54.0968 1.06839C48.9597 1.06839 45.1855 4.31839 45.1855 9.87484V17.2136H58.3951C60.2822 17.2136 61.8548 18.7861 61.8548 20.6732C61.8548 22.5603 60.2822 24.1329 58.3951 24.1329C60.4919 24.1329 62.1693 25.6006 62.1693 27.4877C62.1693 29.3748 60.5968 30.8426 58.3951 30.8426H45.0806V47.9313H56.4032C60.3871 47.9313 65 44.1571 65 39.3345V1.06839H54.0968Z" fill="#1BCC38"/>
<path d="M45.0806 9.97968V17.2136H58.2903C60.1774 17.2136 61.75 18.7861 61.75 20.6732C61.75 22.5603 60.1774 24.1329 58.2903 24.1329C60.3871 24.1329 62.0645 25.6006 62.0645 27.4877C62.0645 29.3748 60.4919 30.8426 58.2903 30.8426H45.0806V47.9313H56.4032C60.3871 47.9313 65 44.1571 65 39.3345V1.06839" fill="#329947"/>
<path d="M61.75 20.6731C61.75 22.5602 60.1774 24.1328 58.2903 24.1328C60.3871 24.1328 62.0645 25.6005 62.0645 27.4876C62.0645 29.3747 60.4919 30.8425 58.2903 30.8425H45.0806V47.9312H56.4032C60.3871 47.9312 65 44.157 65 39.3344" fill="#146643"/>
<path d="M55.7742 21.0927C55.7742 19.8346 54.621 18.6814 53.3629 18.6814H48.5403V23.3991H53.4677C54.7258 23.3991 55.7742 22.3507 55.7742 21.0927Z" fill="#146643"/>
<path d="M31.3468 1.06839C26.2097 1.06839 22.4355 4.31839 22.4355 9.87484V18.891C23.6936 17.8426 25.2661 17.1087 26.9436 17.1087H38.8952V19.6248C36.0645 18.9958 33.3387 18.6813 31.9758 18.6813C29.0403 18.6813 26.629 21.0926 26.629 24.0281C26.629 26.9636 29.0403 29.3748 31.9758 29.3748C33.3387 29.3748 36.0645 29.1652 38.8952 28.5361V30.8426H26.9436C25.2661 30.8426 23.5887 30.2136 22.4355 29.0603V47.9313H33.7581C37.7419 47.9313 42.3548 44.1571 42.3548 39.3345V1.06839H31.3468Z" fill="#E20E37"/>
<path d="M22.4355 9.97968V18.9958C23.6936 17.9474 25.2661 17.2136 26.9436 17.2136H38.8952V19.7297C36.0645 19.1007 33.3387 18.7861 31.9758 18.7861C29.0403 18.7861 26.629 21.1974 26.629 24.1329C26.629 27.0684 29.0403 29.4797 31.9758 29.4797C33.3387 29.4797 36.0645 29.27 38.8952 28.641V30.8426H26.9436C25.2661 30.8426 23.5887 30.2136 22.4355 29.0603V47.9313H33.7581C37.7419 47.9313 42.3548 44.1571 42.3548 39.3345V1.06839" fill="#B41F36"/>
<path d="M38.8952 17.2138V19.7299C36.0645 19.1009 33.3387 18.7864 31.9758 18.7864C29.0403 18.7864 26.629 21.1976 26.629 24.1331C26.629 27.0686 29.0403 29.4799 31.9758 29.4799C33.3387 29.4799 36.0645 29.2702 38.8952 28.6412V30.8428H26.9436C25.2661 30.8428 23.5887 30.2138 22.4355 29.0605V47.9315H33.7581C37.7419 47.9315 42.3548 44.1573 42.3548 39.3347" fill="#720A1E"/>
</svg>
