<svg width="16" height="16" viewBox="0 0 16 16" fill="none" xmlns="http://www.w3.org/2000/svg">
<path fill-rule="evenodd" clip-rule="evenodd" d="M16 14.8704L11.4496 10.3211C12.2912 9.23733 12.8 7.87947 12.8 6.4C12.8 2.86613 9.93387 0 6.4 0C2.86613 0 0 2.86613 0 6.4C0 9.93387 2.86613 12.8 6.4 12.8C7.87947 12.8 9.23733 12.2912 10.3211 11.4496L14.8704 16L16 14.8704ZM6.40157 11.2C3.75623 11.2 1.60156 9.0453 1.60156 6.39997C1.60156 3.75464 3.75623 1.59998 6.40157 1.59998C9.04691 1.59998 11.2016 3.75464 11.2016 6.39997C11.2016 9.0453 9.04691 11.2 6.40157 11.2Z" fill="black"/>
</svg>
