<svg width="65" height="50" viewBox="0 0 65 50" fill="none" xmlns="http://www.w3.org/2000/svg">
<path d="M11.8283 49.8894V46.5708C11.8283 45.2987 11.0472 44.469 9.70818 44.469C9.03865 44.469 8.31334 44.6903 7.81119 45.4093C7.42063 44.8009 6.86268 44.469 6.02577 44.469C5.46783 44.469 4.9099 44.635 4.46355 45.2434V44.5796H3.29187V49.8894H4.46355V46.9579C4.46355 46.0177 4.96569 45.5752 5.7468 45.5752C6.52792 45.5752 6.91848 46.073 6.91848 46.9579V49.8894H8.09016V46.9579C8.09016 46.0177 8.64809 45.5752 9.37342 45.5752C10.1545 45.5752 10.5451 46.073 10.5451 46.9579V49.8894H11.8283ZM29.1803 44.5796H27.2833V42.9757H26.1116V44.5796H25.0515V45.6305H26.1116V48.0641C26.1116 49.281 26.6138 50 27.9528 50C28.455 50 29.0129 49.8341 29.4035 49.6128L29.0687 48.6172C28.7339 48.8385 28.3434 48.8938 28.0644 48.8938C27.5065 48.8938 27.2833 48.5619 27.2833 48.0088V45.6305H29.1803V44.5796ZM39.1116 44.469C38.4421 44.469 37.9957 44.8009 37.7168 45.2434V44.5796H36.5451V49.8894H37.7168V46.9027C37.7168 46.0177 38.1073 45.5199 38.8327 45.5199C39.0558 45.5199 39.3348 45.5752 39.558 45.6305L39.8928 44.5243C39.6696 44.469 39.3348 44.469 39.1116 44.469ZM24.103 45.0221C23.5451 44.6349 22.764 44.469 21.9271 44.469C20.588 44.469 19.6953 45.1327 19.6953 46.1836C19.6953 47.0686 20.3648 47.5664 21.5365 47.7323L22.0944 47.7876C22.7082 47.8982 23.043 48.0641 23.043 48.3407C23.043 48.7279 22.5966 49.0044 21.8155 49.0044C21.0344 49.0044 20.4206 48.7279 20.0301 48.4513L19.4721 49.3363C20.0859 49.7788 20.9228 50 21.7597 50C23.3219 50 24.2146 49.281 24.2146 48.2854C24.2146 47.3451 23.4893 46.8473 22.3734 46.6814L21.8155 46.6261C21.3133 46.5708 20.9228 46.4602 20.9228 46.1283C20.9228 45.7411 21.3133 45.5199 21.9271 45.5199C22.5966 45.5199 23.2661 45.7965 23.6009 45.9624L24.103 45.0221ZM55.2361 44.469C54.5666 44.469 54.1202 44.8009 53.8413 45.2434V44.5796H52.6696V49.8894H53.8413V46.9027C53.8413 46.0177 54.2318 45.5199 54.9571 45.5199C55.1803 45.5199 55.4593 45.5752 55.6825 45.6305L56.0172 44.5243C55.794 44.469 55.4593 44.469 55.2361 44.469ZM40.2833 47.2345C40.2833 48.8385 41.3992 50 43.1288 50C43.9099 50 44.4679 49.8341 45.0258 49.3916L44.4679 48.4513C44.0215 48.7832 43.5751 48.9491 43.073 48.9491C42.1245 48.9491 41.455 48.2854 41.455 47.2345C41.455 46.2389 42.1245 45.5752 43.073 45.5199C43.5751 45.5199 44.0215 45.6858 44.4679 46.0177L45.0258 45.0774C44.4679 44.6349 43.9099 44.469 43.1288 44.469C41.3992 44.469 40.2833 45.6305 40.2833 47.2345ZM51.1073 47.2345V44.5796H49.9357V45.2434C49.5451 44.7456 48.9872 44.469 48.2619 44.469C46.7554 44.469 45.5837 45.6305 45.5837 47.2345C45.5837 48.8385 46.7554 50 48.2619 50C49.043 50 49.6009 49.7234 49.9357 49.2256V49.8894H51.1073V47.2345ZM46.8112 47.2345C46.8112 46.2942 47.4249 45.5199 48.4292 45.5199C49.3777 45.5199 50.0473 46.2389 50.0473 47.2345C50.0473 48.1748 49.3777 48.9491 48.4292 48.9491C47.4249 48.8938 46.8112 48.1748 46.8112 47.2345ZM32.8069 44.469C31.2447 44.469 30.1288 45.5752 30.1288 47.2345C30.1288 48.8938 31.2447 50 32.8627 50C33.6438 50 34.4249 49.7787 35.0387 49.281L34.4807 48.4513C34.0344 48.7832 33.4764 49.0044 32.9185 49.0044C32.1932 49.0044 31.4678 48.6726 31.3005 47.7323H35.2618C35.2618 47.5664 35.2618 47.4557 35.2618 47.2898C35.3176 45.5752 34.3133 44.469 32.8069 44.469ZM32.8069 45.4646C33.5322 45.4646 34.0344 45.9071 34.146 46.7367H31.3563C31.4678 46.0177 31.97 45.4646 32.8069 45.4646ZM61.8756 47.2345V42.4779H60.7039V45.2434C60.3134 44.7456 59.7554 44.469 59.0301 44.469C57.5237 44.469 56.352 45.6305 56.352 47.2345C56.352 48.8385 57.5237 50 59.0301 50C59.8112 50 60.3692 49.7234 60.7039 49.2256V49.8894H61.8756V47.2345ZM57.5794 47.2345C57.5794 46.2942 58.1932 45.5199 59.1975 45.5199C60.146 45.5199 60.8155 46.2389 60.8155 47.2345C60.8155 48.1748 60.146 48.9491 59.1975 48.9491C58.1932 48.8938 57.5794 48.1748 57.5794 47.2345ZM18.4121 47.2345V44.5796H17.2404V45.2434C16.8498 44.7456 16.2919 44.469 15.5666 44.469C14.0601 44.469 12.8884 45.6305 12.8884 47.2345C12.8884 48.8385 14.0601 50 15.5666 50C16.3477 50 16.9056 49.7234 17.2404 49.2256V49.8894H18.4121V47.2345ZM14.0601 47.2345C14.0601 46.2942 14.6738 45.5199 15.6781 45.5199C16.6266 45.5199 17.2962 46.2389 17.2962 47.2345C17.2962 48.1748 16.6266 48.9491 15.6781 48.9491C14.6738 48.8938 14.0601 48.1748 14.0601 47.2345Z" fill="black"/>
<path d="M41.2876 4.25867H23.7125V35.564H41.2876V4.25867Z" fill="#FF5F00"/>
<path d="M24.8283 19.9115C24.8283 13.5509 27.8411 7.90927 32.472 4.25883C29.0686 1.60396 24.7725 -3.05176e-05 20.0858 -3.05176e-05C8.98277 -3.05176e-05 -6.10352e-05 8.90484 -6.10352e-05 19.9115C-6.10352e-05 30.9181 8.98277 39.823 20.0858 39.823C24.7725 39.823 29.0686 38.219 32.472 35.5642C27.8411 31.969 24.8283 26.2721 24.8283 19.9115Z" fill="#EB001B"/>
<path d="M65.0001 19.9115C65.0001 30.9181 56.0173 39.823 44.9142 39.823C40.2275 39.823 35.9314 38.219 32.528 35.5642C37.2147 31.9137 40.1717 26.2721 40.1717 19.9115C40.1717 13.5509 37.1589 7.90927 32.528 4.25883C35.9314 1.60396 40.2275 -3.05176e-05 44.9142 -3.05176e-05C56.0173 -3.05176e-05 65.0001 8.96015 65.0001 19.9115Z" fill="#F79E1B"/>
</svg>
