<svg width="65" height="20" viewBox="0 0 65 20" fill="none" xmlns="http://www.w3.org/2000/svg">
<path fill-rule="evenodd" clip-rule="evenodd" d="M17.5155 1V1.00803C17.5074 1.00803 14.9765 1 14.3016 3.41842C13.6829 5.63597 11.9394 11.7583 11.8912 11.9271H11.4091C11.4091 11.9271 9.62546 5.66811 8.99876 3.41038C8.32386 0.991966 5.78492 1 5.78492 1H0V19.3993H5.78492V8.47219H6.02596H6.267L9.64153 19.3993H13.6588L17.0334 8.48022H17.5155V19.3993H23.3004V1H17.5155Z" fill="#4DB45E"/>
<path fill-rule="evenodd" clip-rule="evenodd" d="M38.6465 1C38.6465 1 36.9512 1.15266 36.1558 2.92831L32.0581 11.9271H31.576V1H25.7911V19.3993H31.2546C31.2546 19.3993 33.0303 19.2386 33.8257 17.471L37.843 8.47219H38.3251V19.3993H44.11V1H38.6465Z" fill="#4DB45E"/>
<path fill-rule="evenodd" clip-rule="evenodd" d="M46.6811 9.35599V19.3993H52.466V13.534H58.733C61.4648 13.534 63.7787 11.7905 64.6384 9.35599H46.6811Z" fill="#4DB45E"/>
<path fill-rule="evenodd" clip-rule="evenodd" d="M58.733 1H45.8696C46.5124 4.50309 49.1397 7.3152 52.5383 8.23115C53.3096 8.44005 54.1211 8.55253 54.9567 8.55253H64.8715C64.9598 8.13473 65 7.7089 65 7.267C65 3.80408 62.1959 1 58.733 1Z" fill="url(#paint0_linear)"/>
<defs>
<linearGradient id="paint0_linear" x1="45.8712" y1="4.77627" x2="65" y2="4.77627" gradientUnits="userSpaceOnUse">
<stop offset="0.3" stop-color="#00B4E6"/>
<stop offset="1" stop-color="#088CCB"/>
</linearGradient>
</defs>
</svg>
