<svg version="1.1" xmlns="http://www.w3.org/2000/svg" xmlns:xlink="http://www.w3.org/1999/xlink">
	<symbol id="icon-basket" viewBox="0 0 34 32">
		<title>Корзина</title>
		<path d="M23.671 8.143h2.953l-4.377-7.51c-0.353-0.609-1.134-0.816-1.743-0.456-0.609 0.353-0.816 1.134-0.456 1.743l3.624 6.224z"></path>
		<path d="M13.651 1.919c0.353-0.609 0.152-1.39-0.456-1.743s-1.39-0.152-1.743 0.456l-4.377 7.517h2.953l3.624-6.231z"></path>
		<path d="M31.513 10.446h-29.348c-1.196 0-2.164 0.968-2.164 2.164v2.4c0 1.196 0.968 2.164 2.164 2.164h0.678l2.088 11.32c0.263 1.335 1.48 2.393 2.745 2.393h6.279c0.553 0 1.272 0 2.005 0h1.328c0.733 0 1.452 0 2.006 0h6.279c1.266 0 2.483-1.058 2.745-2.393l2.102-11.327h1.099c1.196 0 2.165-0.968 2.165-2.164v-2.4c-0.007-1.189-0.975-2.158-2.171-2.158zM11.95 21.759v4.882c0 0.698-0.567 1.224-1.224 1.224-0.698 0-1.224-0.567-1.224-1.224v-6.846c0-0.698 0.567-1.224 1.224-1.224 0.698 0 1.224 0.567 1.224 1.224v1.964zM15.877 21.759v4.882c0 0.698-0.567 1.224-1.224 1.224-0.698 0-1.224-0.567-1.224-1.224v-6.846c0-0.698 0.567-1.224 1.224-1.224s1.224 0.567 1.224 1.224v1.964zM19.826 24.595v2.047c0 0.657-0.525 1.224-1.224 1.224-0.657 0-1.224-0.525-1.224-1.224v-6.846c0-0.657 0.567-1.224 1.224-1.224s1.224 0.526 1.224 1.224v4.799zM23.754 24.595v2.047c0 0.657-0.526 1.224-1.224 1.224-0.657 0-1.224-0.525-1.224-1.224v-6.846c0-0.657 0.525-1.224 1.224-1.224 0.657 0 1.224 0.526 1.224 1.224v4.799z"></path>
	</symbol>
	<symbol id="icon-heart" viewBox="0 0 36 32">
		<title>Сердечко</title>
		<path d="M0 10.511c-0.039 8.721 17.998 19.489 17.998 19.489s18.041-10.766 18.002-19.489c-0.023-4.74-3.896-10.511-9.883-10.511-2.745 0-6.21 1.735-8.119 3.368-1.91-1.633-5.374-3.368-8.119-3.368-5.987 0-9.859 5.771-9.879 10.511z"></path>
	</symbol>
	<symbol id="icon-burger" viewBox="0 0 48 32">
		<title>Бургер</title>
		<path d="M0 0h48v6.4h-48v-6.4z"></path>
		<path d="M0 25.6h48v6.4h-48v-6.4z"></path>
		<path d="M0 12.8h48v6.4h-48v-6.4z"></path>
	</symbol>
	<symbol id="icon-magnifer" viewBox="0 0 32 32">
		<title>Магнифер</title>
		<path d="M32 29.741l-9.101-9.099c1.683-2.168 2.701-4.883 2.701-7.842 0-7.068-5.732-12.8-12.8-12.8s-12.8 5.732-12.8 12.8c0 7.068 5.732 12.8 12.8 12.8 2.959 0 5.675-1.018 7.842-2.701l9.099 9.101 2.259-2.259zM12.803 22.4c-5.291 0-9.6-4.309-9.6-9.6s4.309-9.6 9.6-9.6c5.291 0 9.6 4.309 9.6 9.6s-4.309 9.6-9.6 9.6z"></path>
	</symbol>
</svg>
