<svg version="1.1" xmlns="http://www.w3.org/2000/svg" xmlns:xlink="http://www.w3.org/1999/xlink">
	<symbol id="icon-basket" viewBox="0 0 34 32">
		<title>Basket</title>
		<path d="M23.671 8.143h2.953l-4.377-7.51c-0.353-0.609-1.134-0.816-1.743-0.456-0.609 0.353-0.816 1.134-0.456 1.743l3.624 6.224z"></path>
		<path d="M13.651 1.919c0.353-0.609 0.152-1.39-0.456-1.743s-1.39-0.152-1.743 0.456l-4.377 7.517h2.953l3.624-6.231z"></path>
		<path d="M31.513 10.446h-29.348c-1.196 0-2.164 0.968-2.164 2.164v2.4c0 1.196 0.968 2.164 2.164 2.164h0.678l2.088 11.32c0.263 1.335 1.48 2.393 2.745 2.393h6.279c0.553 0 1.272 0 2.005 0h1.328c0.733 0 1.452 0 2.006 0h6.279c1.266 0 2.483-1.058 2.745-2.393l2.102-11.327h1.099c1.196 0 2.165-0.968 2.165-2.164v-2.4c-0.007-1.189-0.975-2.158-2.171-2.158zM11.95 21.759v4.882c0 0.698-0.567 1.224-1.224 1.224-0.698 0-1.224-0.567-1.224-1.224v-6.846c0-0.698 0.567-1.224 1.224-1.224 0.698 0 1.224 0.567 1.224 1.224v1.964zM15.877 21.759v4.882c0 0.698-0.567 1.224-1.224 1.224-0.698 0-1.224-0.567-1.224-1.224v-6.846c0-0.698 0.567-1.224 1.224-1.224s1.224 0.567 1.224 1.224v1.964zM19.826 24.595v2.047c0 0.657-0.525 1.224-1.224 1.224-0.657 0-1.224-0.525-1.224-1.224v-6.846c0-0.657 0.567-1.224 1.224-1.224s1.224 0.526 1.224 1.224v4.799zM23.754 24.595v2.047c0 0.657-0.526 1.224-1.224 1.224-0.657 0-1.224-0.525-1.224-1.224v-6.846c0-0.657 0.525-1.224 1.224-1.224 0.657 0 1.224 0.526 1.224 1.224v4.799z"></path>
	</symbol>
	<symbol id="icon-heart" viewBox="0 0 36 32">
		<title>Heart</title>
		<path d="M0 10.511c-0.039 8.721 17.998 19.489 17.998 19.489s18.041-10.766 18.002-19.489c-0.023-4.74-3.896-10.511-9.883-10.511-2.745 0-6.21 1.735-8.119 3.368-1.91-1.633-5.374-3.368-8.119-3.368-5.987 0-9.859 5.771-9.879 10.511z"></path>
	</symbol>
	<symbol id="icon-burger" viewBox="0 0 48 32">
		<title>Burger</title>
		<path d="M0 0h48v6.4h-48v-6.4z"></path>
		<path d="M0 25.6h48v6.4h-48v-6.4z"></path>
		<path d="M0 12.8h48v6.4h-48v-6.4z"></path>
	</symbol>
	<symbol id="icon-magnifer" viewBox="0 0 32 32">
		<title>Magnifer</title>
		<path d="M32 29.741l-9.101-9.099c1.683-2.168 2.701-4.883 2.701-7.842 0-7.068-5.732-12.8-12.8-12.8s-12.8 5.732-12.8 12.8c0 7.068 5.732 12.8 12.8 12.8 2.959 0 5.675-1.018 7.842-2.701l9.099 9.101 2.259-2.259zM12.803 22.4c-5.291 0-9.6-4.309-9.6-9.6s4.309-9.6 9.6-9.6c5.291 0 9.6 4.309 9.6 9.6s-4.309 9.6-9.6 9.6z"></path>
	</symbol>
	<symbol id="icon-instagram" viewBox="0 0 32 32">
		<title>Instagram</title>
		<path d="M22.042 10.946h2.989c0.655 0 1.19-0.536 1.19-1.191v-2.85c0-0.655-0.536-1.191-1.19-1.191h-2.989c-0.655 0-1.191 0.535-1.191 1.191v2.85c0 0.655 0.536 1.191 1.191 1.191z"></path>
		<path d="M16.025 21.089c2.933 0 5.311-2.304 5.311-5.146s-2.378-5.146-5.311-5.146c-2.933 0-5.311 2.304-5.311 5.146s2.378 5.146 5.311 5.146z"></path>
		<path d="M30.298 0h-28.596c-0.94 0-1.702 0.762-1.702 1.702v28.596c0 0.94 0.762 1.702 1.702 1.702h28.596c0.94 0 1.702-0.762 1.702-1.702v-28.596c0-0.94-0.762-1.702-1.702-1.702zM29.223 25.829c0 2.012-1.528 3.394-3.394 3.394h-19.658c-1.867 0-3.394-1.382-3.394-3.394v-19.658c0-2.012 1.527-3.394 3.394-3.394h19.658c1.867 0 3.394 1.382 3.394 3.394v19.658z"></path>
		<path d="M24.245 16.23c0 4.399-3.681 7.965-8.22 7.965s-8.22-3.566-8.22-7.965c0-0.788 0.119-1.55 0.339-2.269h-2.429v11.171c0 0.578 0.474 1.051 1.052 1.051h18.417c0.578 0 1.051-0.473 1.051-1.051v-11.171h-2.328c0.219 0.719 0.338 1.48 0.338 2.269z"></path>
	</symbol>
	<symbol id="icon-vk" viewBox="0 0 32 32">
		<title>Vkontakte</title>
		<path d="M30.298 0h-28.596c-0.94 0-1.702 0.762-1.702 1.702v28.596c0 0.94 0.762 1.702 1.702 1.702h28.596c0.94 0 1.702-0.762 1.702-1.702v-28.596c0-0.94-0.762-1.702-1.702-1.702zM25.487 18.023c0.872 0.851 1.794 1.652 2.578 2.593 0.347 0.415 0.673 0.844 0.922 1.327 0.354 0.689 0.034 1.446-0.583 1.486l-3.832-0.001c-0.989 0.081-1.777-0.317-2.442-0.993-0.529-0.54-1.022-1.116-1.532-1.673-0.208-0.229-0.429-0.445-0.689-0.615-0.522-0.339-0.976-0.236-1.276 0.309-0.305 0.555-0.376 1.17-0.404 1.789-0.043 0.904-0.315 1.14-1.221 1.182-1.937 0.091-3.776-0.203-5.484-1.179-1.508-0.861-2.674-2.078-3.69-3.454-1.98-2.684-3.496-5.629-4.858-8.659-0.307-0.683-0.082-1.048 0.67-1.062 1.251-0.025 2.502-0.021 3.752-0.001 0.509 0.008 0.846 0.299 1.041 0.779 0.676 1.663 1.505 3.245 2.543 4.713 0.277 0.39 0.559 0.78 0.961 1.056 0.444 0.305 0.782 0.205 0.992-0.291 0.134-0.316 0.192-0.652 0.22-0.989 0.099-1.156 0.111-2.312-0.060-3.464-0.107-0.72-0.513-1.186-1.231-1.322-0.366-0.069-0.312-0.205-0.134-0.414 0.308-0.362 0.599-0.585 1.177-0.585l4.331-0.001c0.683 0.133 0.835 0.44 0.928 1.127l0.004 4.811c-0.007 0.266 0.133 1.055 0.611 1.229 0.382 0.126 0.636-0.18 0.865-0.424 1.038-1.101 1.777-2.402 2.44-3.748 0.292-0.593 0.545-1.208 0.79-1.823 0.181-0.455 0.465-0.679 0.979-0.671l4.169 0.004c0.123 0 0.248 0.001 0.37 0.021 0.702 0.121 0.894 0.423 0.677 1.109-0.342 1.077-1.007 1.974-1.658 2.874-0.696 0.962-1.438 1.892-2.128 2.858-0.632 0.887-0.581 1.332 0.204 2.099z"></path>
	</symbol>
	<symbol id="icon-facebook" viewBox="0 0 32 32">
		<title>Facebook</title>
		<path d="M30.298 0h-28.596c-0.94 0-1.702 0.762-1.702 1.702v28.596c0 0.94 0.762 1.702 1.702 1.702h28.596c0.94 0 1.702-0.762 1.702-1.702v-28.596c0-0.94-0.762-1.702-1.702-1.702zM22.785 7.273l-2.46 0.001c-1.928 0-2.302 0.916-2.302 2.261v2.965h4.599l-0.001 4.645h-4.598v11.919h-4.797v-11.919h-4.011v-4.645h4.011v-3.425c0-3.975 2.428-6.14 5.974-6.14l3.585 0.006v4.332z"></path>
	</symbol>
	<symbol id="icon-mir" viewBox="0 0 104 32">
		<title>Mir</title>
		<path fill="#4db45e" style="fill: var(--chateau-green, #4db45e);" d="M28.025 1.6v0.013c-0.013 0-4.062-0.013-5.142 3.857-0.99 3.548-3.78 13.344-3.857 13.614h-0.771c0 0-2.854-10.014-3.857-13.627-1.080-3.869-5.142-3.857-5.142-3.857h-9.256v29.439h9.256v-17.483h0.771l5.399 17.483h6.428l5.399-17.471h0.771v17.471h9.256v-29.439h-9.256z"></path>
		<path fill="#4db45e" style="fill: var(--chateau-green, #4db45e);" d="M61.834 1.6c0 0-2.712 0.244-3.985 3.085l-6.556 14.398h-0.771v-17.483h-9.256v29.439h8.742c0 0 2.841-0.257 4.114-3.085l6.428-14.398h0.771v17.483h9.256v-29.439h-8.742z"></path>
		<path fill="#4db45e" style="fill: var(--chateau-green, #4db45e);" d="M74.69 14.97v16.069h9.256v-9.384h10.027c4.371 0 8.073-2.79 9.449-6.685h-28.732z"></path>
		<path fill="#000" style="fill: var(--black, #000);" d="M93.973 1.6h-20.581c1.028 5.605 5.232 10.104 10.67 11.57 1.234 0.334 2.532 0.514 3.869 0.514h15.864c0.141-0.668 0.206-1.35 0.206-2.057 0-5.541-4.487-10.027-10.027-10.027z"></path>
	</symbol>
	<symbol id="icon-visa" viewBox="0 0 104 32">
		<title>Visa</title>
		<path fill="#3c58bf" style="fill: var(--indigo, #3c58bf);" d="M38.133 30.705l5.283-29.714h8.254l-5.117 29.714h-8.419z"></path>
		<path fill="#293688" style="fill: var(--bay-of-many, #293688);" d="M38.133 30.705l6.768-29.714h6.768l-5.117 29.714h-8.419z"></path>
		<path fill="#3c58bf" style="fill: var(--indigo, #3c58bf);" d="M76.432 1.321c-1.651-0.66-4.292-1.321-7.594-1.321-8.254 0-14.197 4.127-14.197 10.070 0 4.457 4.127 6.768 7.429 8.254s4.292 2.476 4.292 3.797c0 1.981-2.641 2.971-4.952 2.971-3.302 0-5.118-0.495-7.924-1.651l-1.156-0.495-1.156 6.768c1.981 0.825 5.613 1.651 9.41 1.651 8.749 0 14.527-4.127 14.527-10.4 0-3.467-2.146-6.108-7.098-8.254-2.971-1.486-4.787-2.311-4.787-3.797 0-1.321 1.486-2.641 4.787-2.641 2.806 0 4.787 0.495 6.273 1.156l0.825 0.33 1.321-6.438z"></path>
		<path fill="#293688" style="fill: var(--bay-of-many, #293688);" d="M76.432 1.321c-1.651-0.66-4.292-1.321-7.594-1.321-8.254 0-12.711 4.127-12.711 10.070 0 4.457 2.641 6.768 5.943 8.254s4.292 2.476 4.292 3.797c0 1.981-2.641 2.971-4.952 2.971-3.302 0-5.118-0.495-7.924-1.651l-1.156-0.495-1.156 6.768c1.981 0.825 5.613 1.651 9.41 1.651 8.749 0 14.527-4.127 14.527-10.4 0-3.467-2.146-6.108-7.098-8.254-2.971-1.486-4.787-2.311-4.787-3.797 0-1.321 1.486-2.641 4.787-2.641 2.806 0 4.787 0.495 6.273 1.156l0.825 0.33 1.321-6.438z"></path>
		<path fill="#3c58bf" style="fill: var(--indigo, #3c58bf);" d="M90.629 0.991c-1.981 0-3.467 0.165-4.292 2.146l-12.381 27.568h8.914l1.651-4.952h10.565l0.99 4.952h7.924l-6.933-29.714h-6.438zM86.832 20.8c0.495-1.486 3.302-8.749 3.302-8.749s0.66-1.816 1.156-2.971l0.495 2.806c0 0 1.651 7.429 1.981 9.079h-6.933v-0.165z"></path>
		<path fill="#293688" style="fill: var(--bay-of-many, #293688);" d="M92.61 0.991c-1.981 0-3.467 0.165-4.292 2.146l-14.362 27.568h8.914l1.651-4.952h10.565l0.99 4.952h7.924l-6.933-29.714h-4.457zM86.832 20.8c0.66-1.651 3.302-8.749 3.302-8.749s0.66-1.816 1.156-2.971l0.495 2.806c0 0 1.651 7.429 1.981 9.079h-6.933v-0.165z"></path>
		<path fill="#3c58bf" style="fill: var(--indigo, #3c58bf);" d="M22.946 21.79l-0.825-4.292c-1.486-4.952-6.273-10.4-11.556-13.041l7.429 26.413h8.914l13.372-29.714h-8.914l-8.419 20.635z"></path>
		<path fill="#293688" style="fill: var(--bay-of-many, #293688);" d="M22.946 21.79l-0.825-4.292c-1.486-4.952-6.273-10.4-11.556-13.041l7.429 26.413h8.914l13.372-29.714h-7.264l-10.070 20.635z"></path>
		<path fill="#ffbc00" style="fill: var(--selective-yellow, #ffbc00);" d="M0 0.991l1.486 0.33c10.565 2.476 17.829 8.749 20.635 16.178l-2.971-14.032c-0.495-1.981-1.981-2.476-3.797-2.476h-15.352z"></path>
		<path fill="#f7981d" style="fill: var(--tree-poppy, #f7981d);" d="M0 0.991c10.565 2.476 19.314 8.914 22.121 16.343l-2.806-11.721c-0.495-1.981-2.146-3.136-3.962-3.136l-15.352-1.486z"></path>
		<path fill="#ed7c00" style="fill: var(--gold-drop, #ed7c00);" d="M0 0.991c10.565 2.476 19.314 8.914 22.121 16.343l-1.981-6.438c-0.495-1.981-1.156-3.962-3.467-4.787l-16.673-5.117z"></path>
		<path fill="#051244" style="fill: var(--deep-cove, #051244);" d="M31.2 20.8l-5.613-5.613-2.641 6.273-0.66-4.127c-1.486-4.952-6.273-10.4-11.556-13.041l7.429 26.413h8.914l4.127-9.905z"></path>
		<path fill="#051244" style="fill: var(--deep-cove, #051244);" d="M46.552 30.705l-7.098-7.264-1.321 7.264h8.419z"></path>
		<path fill="#051244" style="fill: var(--deep-cove, #051244);" d="M65.536 20.47c0.66 0.66 0.991 1.156 0.825 1.816 0 1.981-2.641 2.971-4.952 2.971-3.302 0-5.118-0.495-7.924-1.651l-1.156-0.495-1.156 6.768c1.981 0.825 5.613 1.651 9.41 1.651 5.283 0 9.575-1.486 12.051-4.127l-7.098-6.933z"></path>
		<path fill="#051244" style="fill: var(--deep-cove, #051244);" d="M75.111 30.705h7.759l1.651-4.952h10.565l0.99 4.952h7.924l-2.806-12.051-9.905-9.575 0.495 2.641c0 0 1.651 7.429 1.981 9.079h-6.933c0.66-1.651 3.301-8.749 3.301-8.749s0.66-1.816 1.156-2.971z"></path>
	</symbol>
	<symbol id="icon-mastercard" viewBox="0 0 42 32">
		<title>MasterCard</title>
		<path fill="#000" style="fill: var(--black, #000);" d="M7.57 31.929v-2.124c0-0.814-0.5-1.345-1.357-1.345-0.428 0-0.893 0.142-1.214 0.602-0.25-0.389-0.607-0.602-1.143-0.602-0.357 0-0.714 0.106-1 0.496v-0.425h-0.75v3.398h0.75v-1.876c0-0.602 0.321-0.885 0.821-0.885s0.75 0.319 0.75 0.885v1.876h0.75v-1.876c0-0.602 0.357-0.885 0.821-0.885 0.5 0 0.75 0.319 0.75 0.885v1.876h0.821zM18.675 28.531h-1.214v-1.026h-0.75v1.026h-0.678v0.673h0.678v1.558c0 0.779 0.321 1.239 1.178 1.239 0.321 0 0.678-0.106 0.928-0.248l-0.214-0.637c-0.214 0.142-0.464 0.177-0.643 0.177-0.357 0-0.5-0.212-0.5-0.566v-1.522h1.214v-0.673zM25.031 28.46c-0.428 0-0.714 0.212-0.893 0.496v-0.425h-0.75v3.398h0.75v-1.912c0-0.566 0.25-0.885 0.714-0.885 0.143 0 0.321 0.035 0.464 0.071l0.214-0.708c-0.143-0.035-0.357-0.035-0.5-0.035zM15.426 28.814c-0.357-0.248-0.857-0.354-1.393-0.354-0.857 0-1.428 0.425-1.428 1.097 0 0.566 0.428 0.885 1.178 0.991l0.357 0.035c0.393 0.071 0.607 0.177 0.607 0.354 0 0.248-0.286 0.425-0.786 0.425s-0.893-0.177-1.143-0.354l-0.357 0.566c0.393 0.283 0.928 0.425 1.464 0.425 1 0 1.571-0.46 1.571-1.097 0-0.602-0.464-0.92-1.178-1.027l-0.357-0.035c-0.321-0.035-0.571-0.106-0.571-0.319 0-0.248 0.25-0.389 0.643-0.389 0.428 0 0.857 0.177 1.071 0.283l0.321-0.602zM35.351 28.46c-0.428 0-0.714 0.212-0.893 0.496v-0.425h-0.75v3.398h0.75v-1.912c0-0.566 0.25-0.885 0.714-0.885 0.143 0 0.321 0.035 0.464 0.071l0.214-0.708c-0.143-0.035-0.357-0.035-0.5-0.035zM25.781 30.23c0 1.027 0.714 1.77 1.821 1.77 0.5 0 0.857-0.106 1.214-0.389l-0.357-0.602c-0.286 0.212-0.571 0.319-0.893 0.319-0.607 0-1.036-0.425-1.036-1.097 0-0.637 0.428-1.062 1.036-1.097 0.321 0 0.607 0.106 0.893 0.319l0.357-0.602c-0.357-0.283-0.714-0.389-1.214-0.389-1.107 0-1.821 0.743-1.821 1.77zM32.709 30.23v-1.699h-0.75v0.425c-0.25-0.319-0.607-0.496-1.071-0.496-0.964 0-1.714 0.743-1.714 1.77s0.75 1.77 1.714 1.77c0.5 0 0.857-0.177 1.071-0.496v0.425h0.75v-1.699zM29.959 30.23c0-0.602 0.393-1.097 1.036-1.097 0.607 0 1.036 0.46 1.036 1.097 0 0.602-0.429 1.097-1.036 1.097-0.643-0.035-1.036-0.496-1.036-1.097zM20.996 28.46c-1 0-1.714 0.708-1.714 1.77s0.714 1.77 1.75 1.77c0.5 0 1-0.142 1.393-0.46l-0.357-0.531c-0.286 0.212-0.643 0.354-1 0.354-0.464 0-0.928-0.212-1.036-0.814h2.535c0-0.106 0-0.177 0-0.283 0.036-1.097-0.607-1.805-1.571-1.805zM20.996 29.097c0.464 0 0.786 0.283 0.857 0.814h-1.785c0.071-0.46 0.393-0.814 0.928-0.814zM39.6 30.23v-3.044h-0.75v1.77c-0.25-0.319-0.607-0.496-1.071-0.496-0.964 0-1.714 0.743-1.714 1.77s0.75 1.77 1.714 1.77c0.5 0 0.857-0.177 1.071-0.496v0.425h0.75v-1.699zM36.851 30.23c0-0.602 0.393-1.097 1.036-1.097 0.607 0 1.036 0.46 1.036 1.097 0 0.602-0.428 1.097-1.036 1.097-0.643-0.035-1.036-0.496-1.036-1.097zM11.784 30.23v-1.699h-0.75v0.425c-0.25-0.319-0.607-0.496-1.071-0.496-0.964 0-1.714 0.743-1.714 1.77s0.75 1.77 1.714 1.77c0.5 0 0.857-0.177 1.071-0.496v0.425h0.75v-1.699zM8.998 30.23c0-0.602 0.393-1.097 1.036-1.097 0.607 0 1.036 0.46 1.036 1.097 0 0.602-0.429 1.097-1.036 1.097-0.643-0.035-1.036-0.496-1.036-1.097z"></path>
		<path fill="#ff5f00" style="fill: var(--blaze-orange, #ff5f00);" d="M26.424 2.726h-11.248v20.035h11.248v-20.035z"></path>
		<path fill="#eb001b" style="fill: var(--red, #eb001b);" d="M15.89 12.743c0-4.071 1.928-7.681 4.892-10.018-2.178-1.699-4.928-2.726-7.927-2.726-7.106 0-12.855 5.699-12.855 12.743s5.749 12.743 12.855 12.743c2.999 0 5.749-1.027 7.927-2.726-2.964-2.301-4.892-5.947-4.892-10.018z"></path>
		<path fill="#f79e1b" style="fill: var(--tree-poppy, #f79e1b);" d="M41.6 12.743c0 7.044-5.749 12.743-12.855 12.743-3 0-5.749-1.027-7.927-2.726 3-2.336 4.892-5.947 4.892-10.018s-1.928-7.681-4.892-10.018c2.178-1.699 4.928-2.726 7.927-2.726 7.106 0 12.855 5.734 12.855 12.743z"></path>
	</symbol>
	<symbol id="icon-jcb" viewBox="0 0 42 32">
		<title>JCB</title>
		<path fill="#1174ce" style="fill: var(--denim, #1174ce);" d="M5.703 0.684c-3.221 0-5.703 2.080-5.703 5.703v10.333c0.268 1.275 1.61 2.214 3.086 2.214 1.677 0 2.885-1.208 2.885-2.684v-5.234h4.563v5.166c0 2.885-3.69 4.361-6.374 4.361-1.543 0-3.019-0.47-4.093-1.275v11.406h7.246c2.55 0 5.502-2.416 5.502-5.502v-24.49h-7.112z"></path>
		<path fill="#0f549d" style="fill: var(--tory-blue, #0f549d);" d="M0 6.387v10.333c0.268 1.275 1.61 2.214 3.086 2.214 1.677 0 2.885-1.208 2.885-2.684v-5.234h4.563v5.166c0 2.885-3.69 4.361-6.374 4.361-1.543 0-3.019-0.47-4.093-1.275v11.406h7.246c2.55 0 5.502-2.416 5.502-5.502v-24.49z"></path>
		<path fill="#02375e" style="fill: var(--astronaut-blue, #02375e);" d="M10.467 11.017v5.166c0 2.885-3.69 4.361-6.374 4.361-1.543 0-3.019-0.47-4.093-1.275v11.406h7.246c2.55 0 5.502-2.416 5.502-5.502z"></path>
		<path fill="#146643" style="fill: var(--jewel, #146643);" d="M31.066 18.8h3.154c0.805 0 1.543-0.738 1.543-1.543s-0.738-1.543-1.543-1.543h-3.154v3.086z"></path>
		<path fill="#1bcc38" style="fill: var(--malachite, #1bcc38);" d="M34.622 0.684c-3.288 0-5.703 2.080-5.703 5.636v4.697h8.454c1.208 0 2.214 1.006 2.214 2.214s-1.006 2.214-2.214 2.214c1.342 0 2.416 0.939 2.416 2.147s-1.006 2.147-2.416 2.147h-8.521v10.937h7.246c2.55 0 5.502-2.416 5.502-5.502v-24.49h-6.978z"></path>
		<path fill="#329947" style="fill: var(--sea-green, #329947);" d="M28.852 6.387v4.63h8.454c1.208 0 2.214 1.006 2.214 2.214s-1.006 2.214-2.214 2.214c1.342 0 2.416 0.939 2.416 2.147s-1.006 2.147-2.416 2.147h-8.454v10.937h7.246c2.55 0 5.502-2.416 5.502-5.502v-24.49z"></path>
		<path fill="#146643" style="fill: var(--jewel, #146643);" d="M39.52 13.231c0 1.208-1.006 2.214-2.214 2.214 1.342 0 2.416 0.939 2.416 2.147s-1.006 2.147-2.416 2.147h-8.454v10.937h7.246c2.55 0 5.502-2.416 5.502-5.502z"></path>
		<path fill="#146643" style="fill: var(--jewel, #146643);" d="M35.696 13.499c0-0.805-0.738-1.543-1.543-1.543h-3.086v3.019h3.154c0.805 0 1.476-0.671 1.476-1.476z"></path>
		<path fill="#e20e37" style="fill: var(--red-ribbon, #e20e37);" d="M20.062 0.684c-3.288 0-5.703 2.080-5.703 5.636v5.77c0.805-0.671 1.812-1.141 2.885-1.141h7.649v1.61c-1.812-0.403-3.556-0.604-4.428-0.604-1.879 0-3.422 1.543-3.422 3.422s1.543 3.422 3.422 3.422c0.872 0 2.617-0.134 4.428-0.537v1.476h-7.649c-1.074 0-2.147-0.403-2.885-1.141v12.077h7.246c2.55 0 5.502-2.416 5.502-5.502v-24.49h-7.045z"></path>
		<path fill="#b41f36" style="fill: var(--cardinal, #b41f36);" d="M14.359 6.387v5.77c0.805-0.671 1.812-1.141 2.885-1.141h7.649v1.61c-1.812-0.403-3.556-0.604-4.428-0.604-1.879 0-3.422 1.543-3.422 3.422s1.543 3.422 3.422 3.422c0.872 0 2.617-0.134 4.428-0.537v1.409h-7.649c-1.074 0-2.147-0.403-2.885-1.141v12.077h7.246c2.55 0 5.502-2.416 5.502-5.502v-24.49z"></path>
		<path fill="#720a1e" style="fill: var(--monarch, #720a1e);" d="M24.893 11.017v1.61c-1.812-0.403-3.556-0.604-4.428-0.604-1.879 0-3.422 1.543-3.422 3.422s1.543 3.422 3.422 3.422c0.872 0 2.617-0.134 4.428-0.537v1.409h-7.649c-1.074 0-2.147-0.403-2.885-1.141v12.077h7.246c2.55 0 5.502-2.416 5.502-5.502z"></path>
	</symbol>
	<symbol id="icon-heart--hollowed" viewBox="0 0 38 32">
		<title>Hollowed heart</title>
		<path fill="none" stroke-linejoin="miter" stroke-linecap="butt" stroke-miterlimit="4" stroke-width="3.7647" d="M1.882 11.001v-0c0.009-2.008 0.851-4.336 2.382-6.149 1.509-1.787 3.59-2.97 6.067-2.97 1.079 0 2.432 0.352 3.813 0.961 1.366 0.602 2.61 1.389 3.454 2.11l1.224 1.046 1.223-1.046c0.842-0.72 2.086-1.507 3.452-2.109 1.381-0.609 2.735-0.961 3.814-0.961 2.478 0 4.559 1.183 6.069 2.97 1.532 1.813 2.374 4.14 2.384 6.149 0.008 1.666-0.871 3.671-2.545 5.891-1.643 2.179-3.879 4.338-6.181 6.27-2.292 1.924-4.593 3.577-6.327 4.751-0.759 0.514-1.406 0.935-1.891 1.243-0.485-0.309-1.132-0.729-1.891-1.243-1.733-1.175-4.034-2.828-6.325-4.752-2.301-1.932-4.536-4.091-6.179-6.27-1.674-2.22-2.552-4.225-2.544-5.89z"></path>
	</symbol>
	<symbol id="icon-quotes" viewBox="0 0 27 32">
		<title>Quotes</title>
		<path d="M18.606 29.897l-1.92-27.84h10.011l-1.783 27.84h-6.309zM3.657 29.897l-1.92-27.84h10.149l-2.057 27.84h-6.171z"></path>
	</symbol>
</svg>
