<svg width="20" height="20" viewBox="0 0 20 20" fill="none" xmlns="http://www.w3.org/2000/svg">
<path d="M18.9362 0H1.06383C0.476383 0 0 0.476383 0 1.06383V18.9362C0 19.5236 0.476383 20 1.06383 20H18.9362C19.5238 20 20 19.5236 20 18.9362V1.06383C20 0.476383 19.5238 0 18.9362 0ZM18.2711 4.95787C17.8196 5.63383 17.26 6.21787 16.6079 6.69489C16.613 6.82596 16.6155 6.95723 16.6155 7.08957C16.6155 11.8374 13.003 16.7483 6.95681 16.7483C5.10851 16.7483 3.30915 16.2208 1.75298 15.223C1.72064 15.2023 1.70681 15.1621 1.72 15.126C1.73298 15.09 1.76979 15.0679 1.80702 15.0719C2.06851 15.103 2.33511 15.1185 2.60043 15.1185C4.0383 15.1185 5.39957 14.674 6.55085 13.8306C5.17064 13.7143 3.98447 12.78 3.55766 11.4479C3.54894 11.42 3.55532 11.3902 3.57468 11.3681C3.59383 11.3462 3.6234 11.337 3.6517 11.3419C4.03404 11.4147 4.42277 11.4189 4.79787 11.3585C3.37447 10.916 2.37383 9.58277 2.37383 8.06468L2.37426 8.02043C2.37489 7.99149 2.39064 7.96511 2.41532 7.95106C2.44043 7.9366 2.47149 7.93638 2.49638 7.95043C2.86723 8.15638 3.27872 8.28894 3.69957 8.33936C2.8817 7.68745 2.40128 6.69915 2.40128 5.64191C2.40128 5.03192 2.56298 4.43213 2.86809 3.9083C2.8817 3.88511 2.90596 3.86957 2.93298 3.86787C2.96 3.86511 2.98617 3.87681 3.00298 3.89809C4.67745 5.95149 7.14 7.21617 9.77341 7.37851C9.72915 7.15723 9.70702 6.92957 9.70702 6.69957C9.70702 4.7983 11.254 3.2517 13.1551 3.2517C14.0904 3.2517 14.9932 3.63596 15.6404 4.30702C16.3706 4.1583 17.0653 3.89 17.7074 3.50915C17.737 3.4917 17.7738 3.49447 17.8006 3.51553C17.8272 3.53702 17.8381 3.57255 17.8274 3.60511C17.6102 4.28574 17.1853 4.87936 16.6155 5.30809C17.1523 5.21468 17.6738 5.0566 18.1691 4.83702C18.2026 4.8217 18.2419 4.83128 18.2655 4.85915C18.2891 4.88723 18.2917 4.92723 18.2711 4.95787Z" fill="#989797"/>
</svg>
