<svg width="65" height="20" viewBox="0 0 65 20" fill="none" xmlns="http://www.w3.org/2000/svg">
<path d="M23.8334 19.1906L27.135 0.619202H32.2937L29.0953 19.1906H23.8334Z" fill="#3C58BF"/>
<path d="M23.8334 19.1906L28.0635 0.619202H32.2937L29.0953 19.1906H23.8334Z" fill="#293688"/>
<path d="M47.7698 0.825396C46.7381 0.412698 45.0873 0 43.0238 0C37.8651 0 34.1508 2.57936 34.1508 6.29365C34.1508 9.07936 36.7302 10.5238 38.7937 11.4524C40.8571 12.381 41.4762 13 41.4762 13.8254C41.4762 15.0635 39.8254 15.6825 38.381 15.6825C36.3175 15.6825 35.1825 15.373 33.4286 14.6508L32.7064 14.3413L31.9841 18.5714C33.2222 19.0873 35.4921 19.6032 37.8651 19.6032C43.3333 19.6032 46.9444 17.0238 46.9444 13.1032C46.9444 10.9365 45.6032 9.28571 42.5079 7.94444C40.6508 7.01587 39.5159 6.5 39.5159 5.57143C39.5159 4.74603 40.4444 3.92063 42.5079 3.92063C44.2619 3.92063 45.5 4.23016 46.4286 4.64286L46.9444 4.84921L47.7698 0.825396Z" fill="#3C58BF"/>
<path d="M47.7698 0.825396C46.7381 0.412698 45.0873 0 43.0238 0C37.8651 0 35.0794 2.57936 35.0794 6.29365C35.0794 9.07936 36.7302 10.5238 38.7937 11.4524C40.8571 12.381 41.4762 13 41.4762 13.8254C41.4762 15.0635 39.8254 15.6825 38.381 15.6825C36.3175 15.6825 35.1825 15.373 33.4286 14.6508L32.7064 14.3413L31.9841 18.5714C33.2222 19.0873 35.4921 19.6032 37.8651 19.6032C43.3333 19.6032 46.9444 17.0238 46.9444 13.1032C46.9444 10.9365 45.6032 9.28571 42.5079 7.94444C40.6508 7.01587 39.5159 6.5 39.5159 5.57143C39.5159 4.74603 40.4444 3.92063 42.5079 3.92063C44.2619 3.92063 45.5 4.23016 46.4286 4.64286L46.9444 4.84921L47.7698 0.825396Z" fill="#293688"/>
<path d="M56.6429 0.619202C55.4048 0.619202 54.4762 0.722377 53.9603 1.96047L46.2222 19.1906H51.7937L52.8254 16.0954H59.4286L60.0476 19.1906H65L60.6667 0.619202H56.6429ZM54.2698 13.0002C54.5794 12.0716 56.3333 7.5319 56.3333 7.5319C56.3333 7.5319 56.746 6.39698 57.0556 5.67476L57.3651 7.42873C57.3651 7.42873 58.3968 12.0716 58.6032 13.1033H54.2698V13.0002Z" fill="#3C58BF"/>
<path d="M57.881 0.619202C56.6429 0.619202 55.7143 0.722377 55.1984 1.96047L46.2222 19.1906H51.7937L52.8254 16.0954H59.4286L60.0476 19.1906H65L60.6667 0.619202H57.881ZM54.2698 13.0002C54.6825 11.9684 56.3333 7.5319 56.3333 7.5319C56.3333 7.5319 56.746 6.39698 57.0556 5.67476L57.3651 7.42873C57.3651 7.42873 58.3968 12.0716 58.6032 13.1033H54.2698V13.0002Z" fill="#293688"/>
<path d="M14.3412 13.6189L13.8254 10.9364C12.8968 7.84115 9.90474 4.43639 6.60315 2.7856L11.246 19.2935H16.8174L25.1746 0.722107H19.6032L14.3412 13.6189Z" fill="#3C58BF"/>
<path d="M14.3412 13.6189L13.8254 10.9364C12.8968 7.84115 9.90474 4.43639 6.60315 2.7856L11.246 19.2935H16.8174L25.1746 0.722107H20.6349L14.3412 13.6189Z" fill="#293688"/>
<path d="M0 0.619202L0.928571 0.825552C7.53175 2.37317 12.0714 6.2938 13.8254 10.9367L11.9683 2.16682C11.6587 0.928725 10.7302 0.619202 9.59524 0.619202H0Z" fill="#FFBC00"/>
<path d="M0 0.619202C6.60317 2.16682 12.0714 6.19063 13.8254 10.8335L12.0714 3.50809C11.7619 2.27 10.7302 1.54777 9.59524 1.54777L0 0.619202Z" fill="#F7981D"/>
<path d="M0 0.619202C6.60317 2.16682 12.0714 6.19063 13.8254 10.8335L12.5873 6.80968C12.2778 5.57158 11.8651 4.33349 10.4206 3.81761L0 0.619202Z" fill="#ED7C00"/>
<path d="M19.5 13.0001L15.9921 9.4922L14.3413 13.4128L13.9286 10.8335C13 7.73823 10.0079 4.33347 6.70636 2.68268L11.3492 19.1906H16.9206L19.5 13.0001Z" fill="#051244"/>
<path d="M29.0953 19.1908L24.6588 14.6511L23.8334 19.1908H29.0953Z" fill="#051244"/>
<path d="M40.9603 12.7939C41.373 13.2066 41.5794 13.5161 41.4762 13.9288C41.4762 15.1669 39.8254 15.7859 38.381 15.7859C36.3175 15.7859 35.1825 15.4764 33.4286 14.7542L32.7064 14.4447L31.9841 18.6748C33.2222 19.1907 35.4921 19.7066 37.8651 19.7066C41.1667 19.7066 43.8492 18.778 45.3968 17.1272L40.9603 12.7939Z" fill="#051244"/>
<path d="M46.9445 19.1905H51.7937L52.8254 16.0952H59.4286L60.0476 19.1905H65L63.246 11.6587L57.0556 5.67459L57.3651 7.32538C57.3651 7.32538 58.3968 11.9682 58.6032 13H54.2699C54.6826 11.9682 56.3333 7.53173 56.3333 7.53173C56.3333 7.53173 56.746 6.39681 57.0556 5.67459" fill="#051244"/>
</svg>
