<svg width="20" height="20" viewBox="0 0 20 20" fill="none" xmlns="http://www.w3.org/2000/svg">
<path d="M18.9362 0H1.06383C0.47617 0 0 0.476383 0 1.06383V18.9362C0 19.5236 0.47617 20 1.06383 20H18.9362C19.5238 20 20 19.5236 20 18.9362V1.06383C20 0.476383 19.5238 0 18.9362 0ZM15.9296 11.2645C16.4747 11.7964 17.0511 12.2972 17.5406 12.8851C17.7572 13.1447 17.9615 13.4128 18.117 13.7147C18.3385 14.1453 18.1385 14.6183 17.7526 14.6436L15.3577 14.643C14.7394 14.6938 14.247 14.4449 13.8317 14.0221C13.5009 13.6849 13.1932 13.3249 12.8743 12.9766C12.7443 12.8334 12.6064 12.6987 12.4434 12.5923C12.117 12.3804 11.8334 12.4451 11.646 12.7857C11.4553 13.1326 11.4113 13.5172 11.3938 13.9038C11.3672 14.4687 11.197 14.6162 10.6304 14.6423C9.41979 14.6994 8.27064 14.5155 7.20319 13.9055C6.26085 13.3672 5.53213 12.6068 4.89723 11.7468C3.65979 10.0696 2.71213 8.22851 1.86106 6.33468C1.66936 5.90809 1.80957 5.67979 2.27957 5.67106C3.0617 5.65553 3.84362 5.65766 4.62468 5.67021C4.94298 5.67511 5.1534 5.85723 5.27532 6.15723C5.69766 7.1966 6.21596 8.18553 6.86489 9.10255C7.03787 9.3466 7.21447 9.59021 7.46553 9.76277C7.74298 9.9534 7.95447 9.89064 8.08532 9.58106C8.16894 9.38362 8.20511 9.17383 8.22298 8.96277C8.28511 8.24021 8.29255 7.51766 8.18532 6.79787C8.1183 6.34766 7.86468 6.05681 7.41574 5.9717C7.18723 5.9283 7.22064 5.84362 7.3317 5.71319C7.52447 5.48723 7.70617 5.34766 8.06702 5.34766L10.7736 5.34723C11.2004 5.43064 11.2953 5.62213 11.3534 6.0517L11.356 9.05872C11.3515 9.22511 11.4391 9.71787 11.7379 9.82681C11.9768 9.90575 12.1353 9.71404 12.2783 9.56213C12.9268 8.87383 13.3889 8.06085 13.8032 7.21979C13.9855 6.84894 14.1436 6.46468 14.2968 6.08021C14.4102 5.79574 14.5877 5.65575 14.9085 5.66085L17.514 5.66362C17.5906 5.66362 17.6691 5.66447 17.7451 5.67702C18.1838 5.75255 18.304 5.94149 18.1685 6.37C17.9549 7.04298 17.5389 7.60383 17.1321 8.16596C16.6974 8.76702 16.2334 9.3483 15.8019 9.95234C15.4066 10.5064 15.4385 10.7847 15.9296 11.2645Z" fill="black"/>
</svg>
